<svg height="512pt" viewBox="0 0 512 512" width="512pt" xmlns="http://www.w3.org/2000/svg"><g fill-rule="evenodd"><path d="m206 50h110c11 0 20-9 20-20v-20h-160v20c0 11 9 20 20 20zm0 0" fill="#858fa6"/><path d="m306 160v-110h-100v110c0 5.5 4.5 10 10 10h80c5.5 0 10-4.5 10-10zm0 0" fill="#ffc059"/><path d="m276 170h-40v40h40zm0 0" fill="#b5bbc9"/><path d="m130 352c0-14.726562-8.066406-27.660156-20-34.605469v-55.394531h-40v55.394531c-11.933594 6.945313-20 19.878907-20 34.605469v70h80zm0 0" fill="#b0e7f7"/><path d="m216 352v70h80v-70c0-14.726562-8.066406-27.660156-20-34.605469v-55.394531h-40v55.394531c-11.933594 6.945313-20 19.878907-20 34.605469zm0 0" fill="#b0e7f7"/><path d="m382 352v70h80v-70c0-14.726562-8.066406-27.660156-20-34.605469v-15.390625h-40v15.390625c-11.933594 6.945313-20 19.878907-20 34.605469zm0 0" fill="#ff9256"/><path d="m402 262h40v40.003906h-40zm0 0" fill="#b0e7f7"/><path d="m462 422c-22.089844 0-40 17.910156-40 40s17.910156 40 40 40c22 0 40-18 40-40s-18-40-40-40zm0 0" fill="#b5bbc9"/><path d="m422 462c0-22.089844 17.910156-40 40-40h-206c22.089844 0 40 17.910156 40 40s-17.910156 40-40 40h206c-22.089844 0-40-17.90625-40-40zm0 0" fill="#858fa6"/><path d="m296 462c0 22.089844-17.90625 40-40 40-22.089844 0-40-17.910156-40-40s17.910156-40 40-40c22.09375 0 40 17.910156 40 40zm0 0" fill="#b5bbc9"/><path d="m216 462c0-22.089844 17.910156-40 40-40h-206c22.089844 0 40 17.910156 40 40zm0 0" fill="#858fa6"/><path d="m216 462h-126c0 22.089844-17.910156 40-40 40h206c-22.089844 0-40-17.90625-40-40zm0 0" fill="#858fa6"/><path d="m50 502c22.089844 0 40-17.910156 40-40s-17.910156-40-40-40c-22 0-40 18-40 40s18 40 40 40zm0 0" fill="#b5bbc9"/></g><path d="m472 413.007812v-61.007812c0-15.722656-7.535156-30.542969-20-39.945312v-50.054688c0-5.523438-4.476562-10-10-10h-40c-5.523438 0-10 4.476562-10 10v50.054688c-12.460938 9.402343-20 24.222656-20 39.945312v60h-66v-60c0-15.722656-7.535156-30.542969-20-39.945312v-50.054688c0-5.523438-4.476562-10-10-10h-40c-5.523438 0-10 4.476562-10 10v50.054688c-12.464844 9.402343-20 24.222656-20 39.945312v60h-66v-60c0-15.722656-7.539062-30.542969-20-39.945312v-50.054688c0-5.523438-4.476562-10-10-10h-40c-5.523438 0-10 4.476562-10 10v50.054688c-12.464844 9.402343-20 24.222656-20 39.945312v61.007812c-22.796875 4.644532-40 24.84375-40 48.992188 0 27.570312 22.429688 50 50 50h412c27.570312 0 50-22.429688 50-50 0-24.144531-17.203125-44.347656-40-48.992188zm-58.992188 38.992188h-9.003906c-5.523437 0-10 4.476562-10 10s4.476563 10 10 10h9.003906c1.503907 7.386719 4.644532 14.183594 9.019532 20h-126.054688c4.375-5.816406 7.515625-12.613281 9.019532-20h9.011718c5.523438 0 10-4.476562 10-10s-4.476562-10-10-10h-9.011718c-1.503907-7.386719-4.644532-14.183594-9.019532-20h126.054688c-4.375 5.816406-7.515625 12.613281-9.019532 20zm-196.980468-20c-4.378906 5.816406-7.515625 12.613281-9.023438 20h-108.011718c-1.503907-7.386719-4.644532-14.183594-9.019532-20zm-117.035156 40h108.011718c1.507813 7.386719 4.648438 14.183594 9.023438 20h-126.054688c4.378906-5.816406 7.515625-12.613281 9.019532-20zm127.007812-10c0-16.542969 13.457031-30 30-30s30 13.457031 30 30-13.457031 30-30 30-30-13.457031-30-30zm206-190v20.003906h-20v-20.003906zm-40 80c0-10.621094 5.757812-20.566406 15.027344-25.960938 3.078125-1.789062 4.972656-5.082031 4.972656-8.644531v-5.390625h20v5.390625c0 3.5625 1.894531 6.855469 4.972656 8.644531 9.269532 5.394532 15.027344 15.339844 15.027344 25.960938v60h-60zm-166 0c0-10.621094 5.757812-20.566406 15.027344-25.960938 3.078125-1.789062 4.972656-5.082031 4.972656-8.644531v-45.394531h20v45.394531c0 3.5625 1.894531 6.855469 4.972656 8.644531 9.269532 5.394532 15.027344 15.339844 15.027344 25.960938v60h-60zm-150.972656-25.960938c3.078125-1.789062 4.972656-5.082031 4.972656-8.644531v-45.394531h20v45.394531c0 3.5625 1.894531 6.855469 4.972656 8.644531 9.269532 5.394532 15.027344 15.339844 15.027344 25.960938v60h-60v-60c0-10.621094 5.757812-20.566406 15.027344-25.960938zm-55.027344 135.960938c0-16.542969 13.457031-30 30-30s30 13.457031 30 30-13.457031 30-30 30-30-13.457031-30-30zm442 30c-16.542969 0-30-13.457031-30-30s13.457031-30 30-30 30 13.457031 30 30-13.457031 30-30 30zm0 0"/><path d="m255.996094 452c-5.523438 0-10 4.476562-10 10s4.476562 10 10 10h.007812c5.523438 0 9.996094-4.476562 9.996094-10s-4.480469-10-10.003906-10zm0 0"/><path d="m60 462c0-5.523438-4.480469-10-10.003906-10-5.523438 0-10 4.476562-10 10s4.476562 10 10 10h.007812c5.523438 0 9.996094-4.476562 9.996094-10zm0 0"/><path d="m461.996094 452c-5.523438 0-10 4.476562-10 10s4.476562 10 10 10h.007812c5.523438 0 9.996094-4.476562 9.996094-10s-4.480469-10-10.003906-10zm0 0"/><path d="m140.992188 20h25.007812v10c0 16.542969 13.457031 30 30 30v100c0 11.027344 8.972656 20 20 20h10v30c0 5.523438 4.476562 10 10 10h10v3c0 5.523438 4.476562 10 10 10s10-4.476562 10-10v-3h10c5.523438 0 10-4.476562 10-10v-30h10c11.027344 0 20-8.972656 20-20v-100c16.542969 0 30-13.457031 30-30v-10h70.003906c5.519532 0 10-4.476562 10-10s-4.480468-10-10-10h-275.011718c-5.519532 0-10 4.476562-10 10s4.480468 10 10 10zm125.007812 180h-20v-20h20zm30-40h-19.996094-.003906-39.992188c-.003906 0-.003906 0-.007812 0 0 0-.003906 0-.007812 0h-19.992188v-100h80zm-110-140h140v10c0 5.515625-4.488281 10-10 10h-120c-5.515625 0-10-4.484375-10-10zm0 0"/><path d="m359.007812 452h-.007812c-5.523438 0-9.996094 4.476562-9.996094 10s4.480469 10 10.003906 10c5.523438 0 10-4.476562 10-10s-4.476562-10-10-10zm0 0"/><path d="m95.996094 20c5.523437 0 10-4.476562 10-10s-4.476563-10-10-10h-.007813c-5.519531 0-9.996093 4.476562-9.996093 10s4.484374 10 10.003906 10zm0 0"/></svg>