<svg height="512" viewBox="0 0 64 64" width="512" xmlns="http://www.w3.org/2000/svg"><g id="Menu-2" data-name="Menu"><path d="m5 2h24v60h-24z" fill="#ff9811"/><path d="m35 2h24v60h-24z" fill="#ffda44"/><path d="m44 10h11v11h-11z" fill="#ff9811"/><g fill="#231f20"><path d="m59 1h-24a1 1 0 0 0 -1 1v6.23a8.811 8.811 0 0 0 -4 0v-6.23a1 1 0 0 0 -1-1h-24a1 1 0 0 0 -1 1v60a1 1 0 0 0 1 1h24a1 1 0 0 0 1-1v-11.708a7 7 0 0 1 4 0v11.708a1 1 0 0 0 1 1h24a1 1 0 0 0 1-1v-60a1 1 0 0 0 -1-1zm-27 9a7.022 7.022 0 0 1 2 .292v7.938a8.811 8.811 0 0 0 -4 0v-7.938a7.022 7.022 0 0 1 2-.292zm0 18a9.04 9.04 0 0 0 -2 .23v-7.938a7 7 0 0 1 4 0v7.938a9.04 9.04 0 0 0 -2-.23zm2 2.292v7.938a8.811 8.811 0 0 0 -4 0v-7.938a7 7 0 0 1 4 0zm-6 30.708h-22v-58h22v5.947a6.9 6.9 0 0 0 -4 6.053 1 1 0 0 0 2 0 4.67 4.67 0 0 1 2-3.716v7.663a6.9 6.9 0 0 0 -4 6.053 1 1 0 0 0 2 0 4.67 4.67 0 0 1 2-3.716v7.663a6.9 6.9 0 0 0 -4 6.053 1 1 0 0 0 2 0 4.67 4.67 0 0 1 2-3.716v7.663a6.9 6.9 0 0 0 -4 6.053 1 1 0 0 0 2 0 4.67 4.67 0 0 1 2-3.716v7.663a6.9 6.9 0 0 0 -4 6.053 1 1 0 0 0 2 0 4.67 4.67 0 0 1 2-3.716zm4-13a9.04 9.04 0 0 0 -2 .23v-7.938a7 7 0 0 1 4 0v7.938a9.04 9.04 0 0 0 -2-.23zm26 13h-22v-9.716a4.67 4.67 0 0 1 2 3.716 1 1 0 0 0 2 0 6.9 6.9 0 0 0 -4-6.053v-7.663a4.67 4.67 0 0 1 2 3.716 1 1 0 0 0 2 0 6.9 6.9 0 0 0 -4-6.053v-7.663a4.67 4.67 0 0 1 2 3.716 1 1 0 0 0 2 0 6.9 6.9 0 0 0 -4-6.053v-7.663a4.67 4.67 0 0 1 2 3.716 1 1 0 0 0 2 0 6.9 6.9 0 0 0 -4-6.053v-7.663a4.67 4.67 0 0 1 2 3.716 1 1 0 0 0 2 0 6.9 6.9 0 0 0 -4-6.053v-5.947h22z"/><path d="m53.564 41.174a1 1 0 0 0 -1.564.826v12a1 1 0 0 0 2 0v-3h2a1 1 0 0 0 .99-1.139c-.474-3.394-1.171-7.145-3.426-8.687zm.436 7.826v-3.675a22.308 22.308 0 0 1 .844 3.675z"/><path d="m46 48v6a1 1 0 0 0 2 0v-6a3 3 0 0 0 3-3v-3a1 1 0 0 0 -2 0v3a1 1 0 0 1 -1 1v-4a1 1 0 0 0 -2 0v4a1 1 0 0 1 -1-1v-3a1 1 0 0 0 -2 0v3a3 3 0 0 0 3 3z"/><path d="m18.564 25.174a1 1 0 0 0 -1.564.826v12a1 1 0 0 0 2 0v-3h2a1 1 0 0 0 .99-1.139c-.474-3.394-1.171-7.145-3.426-8.687zm.436 7.826v-3.675a22.308 22.308 0 0 1 .844 3.675z"/><path d="m15 25a1 1 0 0 0 -1 1v3a1 1 0 0 1 -1 1v-4a1 1 0 0 0 -2 0v4a1 1 0 0 1 -1-1v-3a1 1 0 0 0 -2 0v3a3 3 0 0 0 3 3v6a1 1 0 0 0 2 0v-6a3 3 0 0 0 3-3v-3a1 1 0 0 0 -1-1z"/><path d="m44 22h11a1 1 0 0 0 1-1v-11a1 1 0 0 0 -1-1h-11a1 1 0 0 0 -1 1v11a1 1 0 0 0 1 1zm1-11h9v9h-9z"/><path d="m55 25h-7a1 1 0 0 0 0 2h7a1 1 0 0 0 0-2z"/><path d="m44 31h11a1 1 0 0 0 0-2h-11a1 1 0 0 0 0 2z"/><path d="m44 35h11a1 1 0 0 0 0-2h-11a1 1 0 0 0 0 2z"/><path d="m44 39h11a1 1 0 0 0 0-2h-11a1 1 0 0 0 0 2z"/><path d="m44 27h1a1 1 0 0 0 0-2h-1a1 1 0 0 0 0 2z"/></g></g></svg>